<svg version="1.1" xmlns="http://www.w3.org/2000/svg" viewBox="0 0 828.524658203125 381.9125671386719" width="828.524658203125" height="381.9125671386719">
  <!-- svg-source:excalidraw -->
  
  <defs>
    <style>
      @font-face {
        font-family: "Virgil";
        src: url("https://excalidraw.com/Virgil.woff2");
      }
      @font-face {
        font-family: "Cascadia";
        src: url("https://excalidraw.com/Cascadia.woff2");
      }
    </style>
  </defs>
  <g transform="translate(42.39501953125 136.5275115966797) rotate(0 376 62)"><text x="0" y="44" font-family="Virgil, Segoe UI Emoji" font-size="49.0987937843407px" fill="#000000" text-anchor="start" style="white-space: pre;" direction="ltr">The essential thing in life is </text><text x="0" y="106" font-family="Virgil, Segoe UI Emoji" font-size="49.0987937843407px" fill="#000000" text-anchor="start" style="white-space: pre;" direction="ltr">not conquering but fighting well.</text></g><g transform="translate(10 10) rotate(0 404.2623291015625 180.95628356933594)"><path d="M-0.7597958311438561 -0.9045651450753213 C248.11185438864695 4.577882061651567, 498.14730007962913 3.4169980150970023, 808.0862024083733 0.10033154338598252 M-0.4176800973713398 -0.235980211943388 C317.9544069735797 -0.0071307665562869715, 637.6731485550288 -0.3455047375416995, 808.23741793558 0.22504533603787424 M806.2387001352898 2.3439598879518826 C806.3449313289776 140.8989567206388, 806.010488469411 285.7522404109643, 807.4172555582327 364.005107174749 M807.9801206376364 -0.19910358180614612 C809.1099376557758 132.5275018839269, 808.6549238389629 267.4641246810709, 808.5546384612634 362.38429415361287 M808.1078972116113 362.84274577945473 C632.3356039070998 354.6214203127867, 452.50728185502976 355.8593796500212, 0.0022383466362953185 361.1597976192832 M809.0124252550304 361.31592966392634 C613.0527137664949 356.35813921926336, 417.76128764783255 356.54844414232093, 0.21437234804034233 362.68017939403654 M0.6146251571016653 360.4226344976521 C2.480908744265138 224.22801996278642, 3.0996652569834637 89.34920975803054, -1.1214799759006802 -1.9691063934343664 M-0.43391070344795235 361.07094502258104 C3.0303641632749025 276.85908164364116, 1.9184973674845547 193.41159418845996, -0.7937357463147654 0.5890667750160404" stroke="#000000" stroke-width="2" fill="none"></path></g></svg>